<!-- Generated by IcoMoon.io -->
<svg version="1.1" xmlns="http://www.w3.org/2000/svg" width="32" height="32" viewBox="0 0 32 32">
<title>icon_notification</title>
<path d="M9.739 29.217h5.565c-0.005 1.535-1.248 2.778-2.782 2.783h-0c-1.535-0.005-2.778-1.248-2.783-2.782v-0zM2.783 27.826c-0.024 0.002-0.051 0.002-0.079 0.002-0.726 0-1.315-0.589-1.315-1.315 0-0.028 0.001-0.055 0.003-0.083l-0 0.004c-0.002-0.024-0.002-0.051-0.002-0.079 0-0.726 0.589-1.315 1.315-1.315 0.028 0 0.055 0.001 0.083 0.003l-0.004-0h0.696c1.188-1.029 1.969-2.5 2.086-4.155l0.001-0.019v-4.174c-0-0.020-0-0.044-0-0.067 0-3.805 3.085-6.89 6.89-6.89 0.024 0 0.047 0 0.071 0l-0.004-0c0.020-0 0.044-0 0.069-0 3.804 0 6.888 3.084 6.888 6.888 0 0.024-0 0.048-0 0.072l0-0.004v4.174c0.117 1.674 0.899 3.145 2.079 4.167l0.008 0.006h0.696c0.024-0.002 0.051-0.002 0.079-0.002 0.726 0 1.315 0.589 1.315 1.315 0 0.028-0.001 0.055-0.003 0.083l0-0.004c0.002 0.024 0.002 0.051 0.002 0.079 0 0.726-0.589 1.315-1.315 1.315-0.028 0-0.055-0.001-0.083-0.003l0.004 0z"></path>
<path stroke-linejoin="miter" stroke-linecap="butt" stroke-miterlimit="4" stroke-width="2.7826" stroke="#000" fill="#000" d="M27.826 8.348c0 3.074-2.492 5.565-5.565 5.565s-5.565-2.492-5.565-5.565c0-3.074 2.492-5.565 5.565-5.565s5.565 2.492 5.565 5.565z"></path>
<path fill="none" stroke-linejoin="miter" stroke-linecap="butt" stroke-miterlimit="4" stroke-width="2.7826" stroke="#000" d="M29.217 8.348c0 3.842-3.115 6.957-6.957 6.957s-6.957-3.115-6.957-6.957c0-3.842 3.115-6.957 6.957-6.957s6.957 3.115 6.957 6.957z"></path>
</svg>
